<svg xmlns="http://www.w3.org/2000/svg" xmlns:xlink="http://www.w3.org/1999/xlink" width="347px" height="100px" viewBox="0 0 720 153" version="1.1">

<g id="surface3">
<g clip-rule="nonzero">
<path style=" stroke:none;fill-rule:nonzero;fill:rgb(20.392157%,23.529412%,24.313725%);fill-opacity:1;" d="M 0 8.019531 L 4.824219 8.019531 C 19.648438 8.019531 34.457031 8.09375 49.28125 8.019531 C 57.929688 8.019531 64.339844 11.523438 68.621094 19.03125 C 84.796875 47.421875 101.152344 75.753906 117.253906 104.214844 C 121.382812 111.25 122.15625 119.757812 119.359375 127.417969 C 116.566406 135.078125 110.496094 141.089844 102.8125 143.808594 C 90.3125 148.121094 77.269531 143.203125 70.355469 131.328125 C 61.121094 115.371094 52.03125 99.460938 42.898438 83.507812 C 29.203125 59.617188 15.523438 35.699219 1.867188 11.757812 C 1.339844 10.875 0.910156 9.847656 0 8.019531 Z M 0 8.019531 "/>
</g>
<g clip-rule="nonzero" clip-path="url(#clip2)">
<path style=" stroke:none;fill-rule:nonzero;fill:rgb(33.72549%,45.098039%,28.235294%);fill-opacity:1;" d="M 187.789062 8.582031 C 185.082031 13.363281 182.65625 17.707031 180.183594 22.019531 C 175.007812 31.054688 169.890625 40.136719 164.597656 49.082031 C 158.050781 60.519531 144.222656 65.566406 131.859375 61.035156 C 120.09375 56.914062 112.859375 44.519531 114.492188 31.394531 C 116.035156 18.671875 126.5 8.90625 139.285156 8.257812 C 154.699219 7.667969 170.171875 8.066406 185.582031 8.066406 C 186.332031 8.171875 187.070312 8.34375 187.789062 8.582031 Z M 187.789062 8.582031 "/>
</g>
<path style=" stroke:none;fill-rule:nonzero;fill:rgb(20.392157%,23.529412%,24.313725%);fill-opacity:1;" d="M 203.617188 16.179688 C 202.515625 16.179688 201.617188 15.832031 200.925781 15.140625 C 200.207031 14.421875 199.851562 13.523438 199.851562 12.445312 L 199.851562 3.910156 C 199.851562 2.832031 200.207031 1.910156 200.925781 1.140625 C 201.617188 0.371094 202.515625 -0.015625 203.617188 -0.015625 L 213.261719 -0.015625 C 214.339844 -0.015625 215.261719 0.371094 216.03125 1.140625 C 216.796875 1.910156 217.183594 2.832031 217.183594 3.910156 L 217.183594 12.445312 C 217.183594 13.523438 216.796875 14.421875 216.03125 15.140625 C 215.261719 15.832031 214.339844 16.179688 213.261719 16.179688 Z M 204.921875 117.292969 C 203.820312 117.292969 202.925781 116.933594 202.234375 116.214844 C 201.515625 115.523438 201.15625 114.625 201.15625 113.523438 L 201.15625 35.984375 C 201.15625 34.910156 201.515625 34.011719 202.234375 33.292969 C 202.925781 32.574219 203.820312 32.214844 204.921875 32.214844 L 212.109375 32.214844 C 213.210938 32.214844 214.109375 32.574219 214.800781 33.292969 C 215.515625 34.011719 215.875 34.910156 215.875 35.984375 L 215.875 113.523438 C 215.875 114.625 215.515625 115.523438 214.800781 116.214844 C 214.109375 116.933594 213.210938 117.292969 212.109375 117.292969 Z M 204.921875 117.292969 "/>
<path style=" stroke:none;fill-rule:nonzero;fill:rgb(20.392157%,23.529412%,24.313725%);fill-opacity:1;" d="M 268.992188 153.292969 C 259.949219 153.292969 252.710938 151.765625 247.277344 148.714844 C 241.820312 145.664062 237.976562 142.164062 235.746094 138.214844 C 233.519531 134.292969 232.402344 130.921875 232.402344 128.101562 C 232.402344 127.101562 232.777344 126.253906 233.519531 125.5625 C 234.289062 124.84375 235.171875 124.484375 236.171875 124.484375 L 243.355469 124.484375 C 244.332031 124.484375 245.136719 124.730469 245.777344 125.214844 C 246.445312 125.703125 246.996094 126.601562 247.429688 127.910156 C 250.480469 136.652344 257.398438 141.023438 268.183594 141.023438 C 276.359375 141.023438 282.40625 139.28125 286.324219 135.792969 C 290.246094 132.304688 292.203125 126.140625 292.203125 117.292969 L 292.203125 106.023438 C 285.902344 114.074219 277.074219 118.101562 265.726562 118.101562 C 254.195312 118.101562 245.5625 114.394531 239.820312 106.984375 C 234.109375 99.574219 231.085938 90.191406 230.75 78.832031 L 230.597656 74.253906 L 230.75 69.871094 C 231.085938 58.613281 234.109375 49.253906 239.820312 41.792969 C 245.5625 34.332031 254.195312 30.601562 265.726562 30.601562 C 277.179688 30.601562 286.121094 34.792969 292.550781 43.179688 L 292.550781 36.140625 C 292.550781 35.0625 292.910156 34.140625 293.625 33.371094 C 294.320312 32.601562 295.214844 32.214844 296.316406 32.214844 L 303.351562 32.214844 C 304.425781 32.214844 305.324219 32.601562 306.039062 33.371094 C 306.730469 34.140625 307.078125 35.0625 307.078125 36.140625 L 307.078125 115.484375 C 307.078125 140.691406 294.382812 153.292969 268.992188 153.292969 Z M 268.683594 105.371094 C 276.320312 105.371094 282.070312 102.882812 285.941406 97.910156 C 289.808594 92.933594 291.898438 86.960938 292.203125 79.984375 C 292.332031 79.011719 292.398438 77.101562 292.398438 74.253906 C 292.398438 71.535156 292.332031 69.691406 292.203125 68.714844 C 291.898438 61.742188 289.808594 55.765625 285.941406 50.792969 C 282.070312 45.84375 276.320312 43.371094 268.683594 43.371094 C 260.84375 43.371094 255.144531 45.84375 251.582031 50.792969 C 248.046875 55.765625 246.113281 62.179688 245.777344 70.023438 L 245.625 74.253906 L 245.777344 78.679688 C 246.113281 86.523438 248.046875 92.933594 251.582031 97.910156 C 255.144531 102.882812 260.84375 105.371094 268.683594 105.371094 Z M 268.683594 105.371094 "/>
<path style=" stroke:none;fill-rule:nonzero;fill:rgb(20.392157%,23.529412%,24.313725%);fill-opacity:1;" d="M 322.757812 16.179688 C 321.65625 16.179688 320.757812 15.832031 320.066406 15.140625 C 319.347656 14.421875 318.992188 13.523438 318.992188 12.445312 L 318.992188 3.910156 C 318.992188 2.832031 319.347656 1.910156 320.066406 1.140625 C 320.757812 0.371094 321.65625 -0.015625 322.757812 -0.015625 L 332.402344 -0.015625 C 333.480469 -0.015625 334.402344 0.371094 335.171875 1.140625 C 335.9375 1.910156 336.324219 2.832031 336.324219 3.910156 L 336.324219 12.445312 C 336.324219 13.523438 335.9375 14.421875 335.171875 15.140625 C 334.402344 15.832031 333.480469 16.179688 332.402344 16.179688 Z M 324.0625 117.292969 C 322.960938 117.292969 322.066406 116.933594 321.375 116.214844 C 320.65625 115.523438 320.296875 114.625 320.296875 113.523438 L 320.296875 35.984375 C 320.296875 34.910156 320.65625 34.011719 321.375 33.292969 C 322.066406 32.574219 322.960938 32.214844 324.0625 32.214844 L 331.25 32.214844 C 332.351562 32.214844 333.25 32.574219 333.941406 33.292969 C 334.65625 34.011719 335.015625 34.910156 335.015625 35.984375 L 335.015625 113.523438 C 335.015625 114.625 334.65625 115.523438 333.941406 116.214844 C 333.25 116.933594 332.351562 117.292969 331.25 117.292969 Z M 324.0625 117.292969 "/>
<path style=" stroke:none;fill-rule:nonzero;fill:rgb(20.392157%,23.529412%,24.313725%);fill-opacity:1;" d="M 353.492188 117.292969 C 352.414062 117.292969 351.519531 116.933594 350.800781 116.214844 C 350.085938 115.523438 349.726562 114.625 349.726562 113.523438 L 349.726562 4.910156 C 349.726562 3.703125 350.085938 2.78125 350.800781 2.140625 C 351.519531 1.472656 352.414062 1.140625 353.492188 1.140625 L 360.679688 1.140625 C 361.78125 1.140625 362.675781 1.5 363.367188 2.214844 C 364.085938 2.910156 364.445312 3.804688 364.445312 4.910156 L 364.445312 113.523438 C 364.445312 114.625 364.085938 115.523438 363.367188 116.214844 C 362.675781 116.933594 361.78125 117.292969 360.679688 117.292969 Z M 353.492188 117.292969 "/>
<path style=" stroke:none;fill-rule:nonzero;fill:rgb(20.392157%,23.529412%,24.313725%);fill-opacity:1;" d="M 406.207031 118.945312 C 400.878906 118.945312 395.957031 117.84375 391.449219 115.640625 C 386.914062 113.460938 383.3125 110.5 380.648438 106.753906 C 377.984375 102.984375 376.652344 98.804688 376.652344 94.214844 C 376.652344 87.035156 379.585938 81.152344 385.453125 76.5625 C 391.347656 71.972656 399.367188 68.921875 409.511719 67.410156 L 434.03125 63.945312 L 434.03125 59.214844 C 434.03125 47.984375 427.535156 42.371094 414.546875 42.371094 C 409.550781 42.371094 405.527344 43.382812 402.480469 45.410156 C 399.429688 47.410156 397.1875 49.78125 395.753906 52.523438 C 395.316406 53.601562 394.855469 54.332031 394.371094 54.714844 C 393.882812 55.101562 393.203125 55.292969 392.332031 55.292969 L 385.953125 55.292969 C 384.980469 55.292969 384.132812 54.933594 383.417969 54.214844 C 382.699219 53.523438 382.339844 52.679688 382.339844 51.679688 C 382.339844 49.191406 383.519531 46.28125 385.875 42.945312 C 388.207031 39.613281 391.832031 36.714844 396.753906 34.253906 C 401.644531 31.820312 407.640625 30.601562 414.738281 30.601562 C 426.933594 30.601562 435.671875 33.433594 440.949219 39.101562 C 446.253906 44.765625 448.90625 51.855469 448.90625 60.371094 L 448.90625 113.523438 C 448.90625 114.625 448.546875 115.523438 447.828125 116.214844 C 447.113281 116.933594 446.214844 117.292969 445.140625 117.292969 L 437.953125 117.292969 C 436.851562 117.292969 435.980469 116.933594 435.339844 116.214844 C 434.671875 115.523438 434.339844 114.625 434.339844 113.523438 L 434.339844 106.332031 C 431.929688 109.921875 428.445312 112.921875 423.886719 115.332031 C 419.300781 117.742188 413.40625 118.945312 406.207031 118.945312 Z M 409.511719 106.984375 C 416.6875 106.984375 422.566406 104.640625 427.152344 99.945312 C 431.738281 95.253906 434.03125 88.433594 434.03125 79.484375 L 434.03125 74.910156 L 414.890625 77.714844 C 407.050781 78.792969 401.109375 80.640625 397.058594 83.253906 C 393.039062 85.871094 391.027344 89.152344 391.027344 93.101562 C 391.027344 97.5625 392.84375 100.984375 396.484375 103.371094 C 400.148438 105.78125 404.488281 106.984375 409.511719 106.984375 Z M 409.511719 106.984375 "/>
<path style=" stroke:none;fill-rule:nonzero;fill:rgb(20.392157%,23.529412%,24.313725%);fill-opacity:1;" d="M 464.957031 117.292969 C 463.855469 117.292969 462.957031 116.933594 462.265625 116.214844 C 461.546875 115.523438 461.1875 114.625 461.1875 113.523438 L 461.1875 35.984375 C 461.1875 34.910156 461.546875 34.011719 462.265625 33.292969 C 462.957031 32.574219 463.855469 32.214844 464.957031 32.214844 L 471.988281 32.214844 C 473.191406 32.214844 474.117188 32.550781 474.757812 33.214844 C 475.421875 33.855469 475.753906 34.78125 475.753906 35.984375 L 475.753906 43.179688 C 479.007812 39.152344 482.789062 36.050781 487.09375 33.871094 C 491.398438 31.691406 496.765625 30.601562 503.195312 30.601562 C 513.648438 30.601562 521.773438 33.945312 527.5625 40.640625 C 533.328125 47.355469 536.210938 56.214844 536.210938 67.214844 L 536.210938 113.523438 C 536.210938 114.625 535.863281 115.523438 535.171875 116.214844 C 534.453125 116.933594 533.542969 117.292969 532.441406 117.292969 L 524.949219 117.292969 C 523.847656 117.292969 522.949219 116.933594 522.257812 116.214844 C 521.539062 115.523438 521.183594 114.625 521.183594 113.523438 L 521.183594 68.214844 C 521.183594 60.371094 519.273438 54.265625 515.457031 49.910156 C 511.636719 45.550781 506.195312 43.371094 499.121094 43.371094 C 492.152344 43.371094 486.59375 45.574219 482.441406 49.984375 C 478.292969 54.394531 476.214844 60.472656 476.214844 68.214844 L 476.214844 113.523438 C 476.214844 114.625 475.871094 115.523438 475.179688 116.214844 C 474.460938 116.933594 473.550781 117.292969 472.449219 117.292969 Z M 464.957031 117.292969 "/>
<path style=" stroke:none;fill-rule:nonzero;fill:rgb(20.392157%,23.529412%,24.313725%);fill-opacity:1;" d="M 587.355469 118.945312 C 575.699219 118.945312 566.589844 115.640625 560.03125 109.023438 C 553.496094 102.433594 550.0625 93.191406 549.730469 81.292969 L 549.578125 74.753906 L 549.730469 68.214844 C 550.0625 56.320312 553.496094 47.074219 560.03125 40.484375 C 566.589844 33.894531 575.699219 30.601562 587.355469 30.601562 C 595.195312 30.601562 601.808594 31.984375 607.1875 34.753906 C 612.59375 37.550781 616.628906 41.011719 619.292969 45.140625 C 621.957031 49.292969 623.40625 53.445312 623.636719 57.601562 C 623.738281 58.574219 623.378906 59.445312 622.558594 60.214844 C 621.742188 60.960938 620.84375 61.332031 619.871094 61.332031 L 612.683594 61.332031 C 611.582031 61.332031 610.761719 61.089844 610.222656 60.601562 C 609.683594 60.113281 609.148438 59.214844 608.609375 57.910156 C 606.636719 52.574219 603.933594 48.78125 600.5 46.523438 C 597.066406 44.292969 592.738281 43.179688 587.511719 43.179688 C 580.644531 43.179688 575.199219 45.304688 571.175781 49.5625 C 567.128906 53.820312 564.9375 60.304688 564.605469 69.023438 L 564.449219 74.753906 L 564.605469 80.484375 C 564.9375 89.203125 567.128906 95.691406 571.175781 99.945312 C 575.199219 104.203125 580.644531 106.332031 587.511719 106.332031 C 592.839844 106.332031 597.195312 105.214844 600.578125 102.984375 C 603.960938 100.753906 606.636719 96.960938 608.609375 91.601562 C 609.148438 90.292969 609.683594 89.394531 610.222656 88.910156 C 610.761719 88.421875 611.582031 88.179688 612.683594 88.179688 L 619.871094 88.179688 C 620.84375 88.179688 621.742188 88.5625 622.558594 89.332031 C 623.378906 90.074219 623.738281 90.945312 623.636719 91.945312 C 623.40625 95.972656 621.957031 100.0625 619.292969 104.214844 C 616.628906 108.34375 612.59375 111.832031 607.1875 114.679688 C 601.808594 117.523438 595.195312 118.945312 587.355469 118.945312 Z M 587.355469 118.945312 "/>
<path style=" stroke:none;fill-rule:nonzero;fill:rgb(20.392157%,23.529412%,24.313725%);fill-opacity:1;" d="M 675.730469 118.945312 C 664.613281 118.945312 655.734375 115.472656 649.097656 108.523438 C 642.4375 101.601562 638.785156 92.140625 638.144531 80.140625 L 637.992188 74.601562 L 638.144531 69.214844 C 638.785156 57.421875 642.4375 48.035156 649.097656 41.0625 C 655.734375 34.089844 664.613281 30.601562 675.730469 30.601562 C 687.722656 30.601562 697.011719 34.410156 703.59375 42.023438 C 710.207031 49.664062 713.511719 60.035156 713.511719 73.140625 L 713.511719 76.0625 C 713.511719 77.164062 713.152344 78.0625 712.433594 78.753906 C 711.71875 79.472656 710.820312 79.832031 709.746094 79.832031 L 653.019531 79.832031 L 653.019531 81.292969 C 653.351562 88.394531 655.527344 94.445312 659.550781 99.445312 C 663.574219 104.472656 668.917969 106.984375 675.578125 106.984375 C 680.703125 106.984375 684.867188 105.972656 688.070312 103.945312 C 691.296875 101.945312 693.730469 99.855469 695.371094 97.679688 C 696.34375 96.371094 697.101562 95.574219 697.636719 95.292969 C 698.175781 95.011719 699.097656 94.871094 700.40625 94.871094 L 707.628906 94.871094 C 708.605469 94.871094 709.449219 95.152344 710.167969 95.714844 C 710.859375 96.253906 711.203125 96.960938 711.203125 97.832031 C 711.203125 100.214844 709.730469 103.101562 706.785156 106.484375 C 703.839844 109.871094 699.675781 112.792969 694.292969 115.253906 C 688.886719 117.714844 682.699219 118.945312 675.730469 118.945312 Z M 653.019531 68.714844 L 698.636719 68.714844 L 698.636719 68.214844 C 698.636719 60.574219 696.5625 54.355469 692.410156 49.5625 C 688.261719 44.765625 682.699219 42.371094 675.730469 42.371094 C 668.660156 42.371094 663.101562 44.765625 659.050781 49.5625 C 655.03125 54.355469 653.019531 60.574219 653.019531 68.214844 Z M 653.019531 68.714844 "/>
</g>
</svg>