<?xml version="1.0" standalone="no"?>
<!DOCTYPE svg PUBLIC "-//W3C//DTD SVG 20010904//EN"
 "http://www.w3.org/TR/2001/REC-SVG-20010904/DTD/svg10.dtd">
<svg version="1.0" xmlns="http://www.w3.org/2000/svg"
 width="700.000000pt" height="700.000000pt" viewBox="0 0 700.000000 700.000000"
 preserveAspectRatio="xMidYMid meet">
<metadata>
Created by potrace 1.14, written by Peter Selinger 2001-2017
</metadata>
<g transform="translate(0.000000,700.000000) scale(0.100000,-0.100000)"
fill="#000000" stroke="none">
<path d="M10 6052 c-13 -5 52 -131 189 -365 28 -49 51 -90 51 -92 0 -2 18 -33
40 -69 22 -36 40 -70 40 -75 0 -5 3 -11 8 -13 4 -1 22 -32 41 -68 19 -36 37
-67 40 -70 3 -3 13 -18 22 -35 56 -103 83 -151 89 -160 4 -5 20 -32 35 -60 16
-27 39 -68 52 -90 12 -22 26 -46 29 -54 4 -7 29 -51 56 -98 26 -46 48 -88 48
-93 0 -6 5 -10 10 -10 6 0 10 -4 10 -9 0 -5 19 -42 43 -83 24 -40 46 -80 50
-88 4 -8 15 -28 26 -45 10 -16 27 -46 38 -65 11 -19 35 -62 54 -95 19 -33 42
-73 52 -90 10 -16 23 -42 30 -57 6 -16 15 -28 19 -28 4 0 8 -4 8 -9 0 -5 32
-63 70 -130 39 -66 70 -125 70 -130 0 -5 4 -11 8 -13 7 -3 38 -55 105 -178 17
-30 38 -66 47 -80 9 -14 19 -30 21 -35 10 -26 124 -220 131 -223 4 -2 8 -8 8
-14 0 -6 36 -73 80 -149 44 -76 80 -142 80 -148 0 -6 3 -11 8 -11 4 0 12 -10
18 -23 21 -43 77 -142 96 -169 10 -14 18 -28 18 -31 0 -2 45 -82 100 -177 55
-95 100 -174 100 -176 0 -2 18 -33 40 -69 22 -36 40 -67 40 -70 0 -3 18 -34
40 -70 22 -36 40 -67 40 -69 0 -5 160 -279 171 -292 5 -6 7 -13 4 -16 -3 -3 1
-11 10 -18 8 -7 15 -19 15 -26 0 -8 5 -14 10 -14 6 0 10 -5 10 -11 0 -12 76
-145 97 -170 7 -9 10 -19 6 -22 -3 -4 -1 -7 5 -7 7 0 12 -4 12 -10 0 -11 45
-88 107 -182 57 -86 159 -191 247 -257 67 -49 222 -131 249 -131 7 0 17 -4 23
-8 8 -8 58 -21 139 -38 53 -11 258 -12 315 -1 124 22 251 67 339 119 34 21 67
38 72 38 5 0 9 4 9 8 0 4 14 16 30 26 31 17 130 113 183 174 30 35 84 119 107
167 8 17 17 32 20 35 8 8 41 102 60 170 51 188 45 407 -16 590 -17 49 -80 181
-117 245 -13 22 -38 66 -56 99 -48 86 -90 159 -101 176 -6 8 -13 22 -17 30 -4
8 -26 48 -50 88 -24 41 -43 75 -43 77 0 1 -28 51 -63 111 -35 60 -66 116 -70
124 -4 8 -17 31 -28 50 -12 19 -33 55 -47 80 -14 25 -276 484 -582 1020 -306
536 -568 995 -582 1020 -170 303 -256 423 -357 493 -63 44 -142 87 -164 91 -7
1 -18 5 -26 10 -22 14 -166 42 -228 45 -100 3 -1883 6 -1893 3z"/>
<path d="M5497 6053 c-1 -1 -90 -4 -197 -7 -107 -3 -208 -8 -225 -11 -77 -14
-171 -38 -179 -46 -6 -5 -16 -9 -23 -9 -53 0 -247 -124 -346 -222 -74 -73
-187 -231 -187 -262 0 -9 -4 -16 -10 -16 -5 0 -10 -8 -10 -18 0 -10 -5 -23
-12 -30 -7 -7 -9 -12 -5 -12 4 0 1 -13 -7 -29 -8 -15 -17 -39 -19 -52 -3 -13
-10 -42 -16 -64 -33 -122 -31 -326 5 -470 8 -33 16 -69 18 -80 9 -49 117 -265
151 -301 5 -6 28 -33 50 -60 35 -44 91 -96 168 -158 33 -26 177 -105 204 -111
10 -3 45 -14 78 -25 33 -11 71 -23 85 -25 14 -3 36 -7 50 -11 14 -3 75 -7 137
-9 279 -7 523 89 725 284 48 47 88 89 88 94 0 4 8 16 18 27 10 10 40 56 67
102 28 46 55 91 60 100 6 9 17 29 26 45 9 15 25 45 37 66 12 20 31 52 41 71
11 19 31 53 45 75 15 22 26 43 26 45 0 2 27 50 60 106 33 56 60 103 60 105 0
1 29 53 65 114 36 62 65 116 65 122 0 5 5 9 10 9 6 0 10 4 10 9 0 8 116 218
156 281 8 14 21 37 27 53 6 15 15 27 19 27 4 0 8 4 8 9 0 5 27 57 60 115 33
58 60 110 60 115 0 5 6 11 13 14 8 3 6 9 -8 20 -15 11 -51 15 -150 17 -179 3
-1296 6 -1298 3z"/>
</g>
</svg>
